<svg xmlns="http://www.w3.org/2000/svg" id="Camada_1" data-name="Camada 1" viewBox="0 0 1080 429.06"><defs><style>.cls-1{fill:#fff;}</style></defs><path class="cls-1" d="M714.79,401.55a115.89,115.89,0,0,1-22.13,2c-17.92,0-26.22-11.66-26.22-29.7v-8.67c0-18.88,8.66-29.46,26.22-29.46a87.87,87.87,0,0,1,14.07,1.2V314.59A2.29,2.29,0,0,1,709,312.3h6.13a2.19,2.19,0,0,1,2.17,2.29v84.2C717.32,400.35,717,401.19,714.79,401.55Zm-8.06-55.69a93.19,93.19,0,0,0-14.07-.84c-11.79,0-15.64,7.34-15.64,20.2v8.67c0,13.1,3.73,20.44,15.64,20.44,4.09,0,10-.36,14.07-.72Z"></path><path class="cls-1" d="M782.42,373h-40.3v1.69c0,14.31,5.66,19.6,16.72,19.6A167,167,0,0,0,780.25,393h.61a1.69,1.69,0,0,1,1.92,1.67v4.1c0,1.56-.48,2.4-2.41,2.76a109.27,109.27,0,0,1-21.53,2c-13.83,0-27.3-6.49-27.3-28.86V363.9c0-17.19,9.5-28.14,26.7-28.14,17.56,0,26.47,11.07,26.47,28.14v6.49C784.71,372,783.86,373,782.42,373ZM774,363.9c0-13.59-5.17-18.88-15.76-18.88-10.34,0-16.12,5.89-16.12,18.88V365H774Z"></path><path class="cls-1" d="M808.79,402.75h-6.26a2.29,2.29,0,0,1-2.16-2.4V314.59a2.18,2.18,0,0,1,2.16-2.29h6.26a2.18,2.18,0,0,1,2.16,2.29v85.76A2.28,2.28,0,0,1,808.79,402.75Z"></path><path class="cls-1" d="M838.26,326h-6.13a2.41,2.41,0,0,1-2.4-2.4V314a2.41,2.41,0,0,1,2.4-2.41h6.13a2.41,2.41,0,0,1,2.41,2.41v9.62A2.41,2.41,0,0,1,838.26,326ZM838,402.75h-5.77a2.41,2.41,0,0,1-2.4-2.4V339a2.41,2.41,0,0,1,2.4-2.41H838a2.41,2.41,0,0,1,2.41,2.41v61.34A2.41,2.41,0,0,1,838,402.75Z"></path><path class="cls-1" d="M909,339.48l-16.24,57.26c-1.57,5.41-5.66,6.85-10.83,6.85s-9.26-1.44-10.82-6.85l-16.24-57.26a2.27,2.27,0,0,1-.12-.83,1.86,1.86,0,0,1,1.92-2h6.62c1,0,1.8.72,2.28,2.29l13.83,52.44c.73,2.88,1.33,3.48,2.53,3.48s1.8-.6,2.53-3.48l13.83-52.44c.48-1.57,1.32-2.29,2.29-2.29h6.61a1.87,1.87,0,0,1,1.93,2A2.27,2.27,0,0,1,909,339.48Z"></path><path class="cls-1" d="M970.74,373H930.45v1.69c0,14.31,5.65,19.6,16.71,19.6A167.3,167.3,0,0,0,968.58,393h.6a1.69,1.69,0,0,1,1.92,1.67v4.1c0,1.56-.48,2.4-2.4,2.76a109.45,109.45,0,0,1-21.54,2c-13.83,0-27.3-6.49-27.3-28.86V363.9c0-17.19,9.5-28.14,26.7-28.14,17.56,0,26.47,11.07,26.47,28.14v6.49C973,372,972.18,373,970.74,373Zm-8.42-9.14c0-13.59-5.17-18.88-15.76-18.88-10.34,0-16.11,5.89-16.11,18.88V365h31.87Z"></path><path class="cls-1" d="M1014.67,344.9c-5.54,0-10.59,1.44-16.6,5.05v50.4a2.5,2.5,0,0,1-2.41,2.4h-5.89a2.39,2.39,0,0,1-2.29-2.4V339a2.32,2.32,0,0,1,2.29-2.41h5.65a2.32,2.32,0,0,1,2.29,2.41v2.52c6-4.21,11.54-5.77,17-5.77q2.52,0,2.52,2.16v4.93C1017.19,344.18,1016.35,344.9,1014.67,344.9Z"></path><path class="cls-1" d="M1079.88,339.48,1060,408.76c-3.73,13-8.18,17.81-22,17.81a49.46,49.46,0,0,1-10.11-1.09c-1.44-.36-2.52-.72-2.52-1.91v-4.46c0-1.32,1-1.93,2.28-1.93h.37c2.64.25,8,.73,10.7.73,6.85,0,9.87-1.8,11.91-10.22l1.2-4.94h-1.68c-3.61,0-6.74-.84-8.9-8.3l-16-55a2,2,0,0,1-.12-.83,1.93,1.93,0,0,1,2.16-2h6.62a2.41,2.41,0,0,1,2,1.93l14.2,52.2c.6,2.41,1.44,2.64,2.28,2.64h1.93l14.67-55a2.45,2.45,0,0,1,2.29-1.81h6.73a1.87,1.87,0,0,1,1.93,2A2,2,0,0,1,1079.88,339.48Z"></path><path class="cls-1" d="M463.78,312.25V268.67C456.39,274.82,446.3,278,434,278c-30.28,0-52.44-19.21-52.44-51.7V198.5c0-32.25,22.4-51.7,52.93-51.7,15.27,0,27.08,4.68,35,13.79,1.48-8.12,7.63-13.29,16.25-13.29h1.24c9.84,0,16.73,6.89,16.73,16.73V312.25c0,8.62-5.66,14.27-14.27,14.27H478.06C469.44,326.52,463.78,320.87,463.78,312.25Zm0-82.23V195.79c0-12.8-7.14-19.94-20.92-19.94-14,0-21.18,7.14-21.18,19.94V230c0,12.8,7.14,19.69,21.18,19.69C456.64,249.71,463.78,242.82,463.78,230Z"></path><path class="cls-1" d="M541.82,227.8V158.86a8.66,8.66,0,0,1,9.11-9.11H572.6a8.67,8.67,0,0,1,9.11,9.11v68.45c0,13.05,6.64,20.19,19.44,20.19,13.05,0,19.7-6.9,19.7-20.19V158.86a8.66,8.66,0,0,1,9.11-9.11h21.67a8.67,8.67,0,0,1,9.11,9.11v79l8.12,8.13c5.91,5.91,6.15,13.54.25,19.45l-7.39,7.63c-5.91,5.91-13.54,5.42-19.45-.49l-11.82-11.82C622.57,272.12,609.77,278,593,278,562,278,541.82,260.05,541.82,227.8Z"></path><path class="cls-1" d="M699.63,230V196.78c0-32.5,22.15-50,60.07-50,38.16,0,58.35,16.5,58.35,48.25v17.49c0,7.63-3.45,11.32-10.83,11.32H739V234.2c0,12.07,6.16,17.48,21.91,17.48,12.31,0,18.22-3.69,18.22-10.83v-1c0-3,1-4.18,4.18-4.18h28.32c3,0,4.67,1.72,4.67,4.92v2c0,23.39-19.44,35.46-55.39,35.46C721.78,278,699.63,261.53,699.63,230ZM739,190.62V200h41.36v-9.36c0-11.81-7.14-18-20.93-18S739,178.81,739,190.62Z"></path><path class="cls-1" d="M856.94,266V187.18l-8.12-8.37c-5.91-5.91-6.4-13.79-.49-19.45L856,152c5.91-5.91,13.54-5.66,19.45.25l13.05,13c5.91-10.83,15.26-17,27.32-17H919c11.08,0,17,5.17,17,14.28v8.12c0,8.62-5.66,13.79-14.77,13.79h-5.42c-12.8,0-19.2,6.89-19.2,20.19V266c0,5.66-3.45,9.11-9.11,9.11H866.05C860.39,275.07,856.94,271.62,856.94,266Z"></path><path class="cls-1" d="M956.9,227.06v-29.3c0-33,23.14-51,61.31-51,38.65,0,61.79,18,61.79,51v29.3c0,33.24-23.14,51-61.55,51S956.9,260.3,956.9,227.06Zm83,3.2V194.57c0-12.32-7.39-19-21.66-19-14,0-21.18,6.65-21.18,19v35.69c0,12.56,7.14,19.21,21.42,19.21C1032.48,249.47,1039.87,242.82,1039.87,230.26Z"></path><path class="cls-1" d="M212.68,105.82a11.29,11.29,0,0,1-7.9-19.36l51.78-50.74a11.29,11.29,0,0,1,15.8,16.14l-51.77,50.73A11.25,11.25,0,0,1,212.68,105.82Z"></path><path class="cls-1" d="M147.92,85.71a11.29,11.29,0,0,1-11.29-11.29V11.3a11.3,11.3,0,1,1,22.59,0V74.42A11.3,11.3,0,0,1,147.92,85.71Z"></path><path class="cls-1" d="M83.16,105.82a11.24,11.24,0,0,1-7.91-3.23L23.47,51.86A11.3,11.3,0,0,1,39.28,35.72L91.06,86.46a11.29,11.29,0,0,1-7.9,19.36Z"></path><path class="cls-1" d="M279.86,161.73a5.84,5.84,0,0,0-5.78-5.41c-5.48,0-7.93-2.47-11.62-6.17-4.24-4.24-9.52-9.52-19.8-9.59h-.19c-10.15,0-15.46,5.17-19.73,9.33-3.74,3.65-6.23,6.11-11.7,6s-7.92-2.47-11.62-6.17c-4.24-4.24-9.52-9.52-19.8-9.59h-.19c-10.15,0-15.45,5.17-19.72,9.33-3.72,3.62-6.18,6-11.58,6h-.42c-5.4,0-7.86-2.4-11.58-6-4.27-4.16-9.57-9.33-19.72-9.33h-.19c-10.28.07-15.56,5.35-19.8,9.59-3.7,3.7-6.14,6.14-11.63,6.17s-8-2.37-11.7-6c-4.26-4.16-9.57-9.33-19.72-9.33h-.19c-10.28.07-15.56,5.35-19.8,9.59-3.7,3.7-6.14,6.14-11.62,6.17A5.84,5.84,0,0,0,16,161.73L.06,379.08a22.05,22.05,0,0,0,22,23.65H273.8a22.05,22.05,0,0,0,22-23.65Zm-100,15.8A15.44,15.44,0,1,1,164.45,193,15.43,15.43,0,0,1,179.88,177.53Zm-63.92,0A15.44,15.44,0,1,1,100.52,193,15.43,15.43,0,0,1,116,177.53ZM148.12,314h-.4a94.16,94.16,0,0,1-94-94,11,11,0,0,1,22,0,72.13,72.13,0,0,0,72.05,72h.4a72.13,72.13,0,0,0,72-72,11,11,0,0,1,22,0A94.16,94.16,0,0,1,148.12,314Z"></path></svg>